<?xml version="1.0" encoding="UTF-8"?>
<svg width="906px" height="977px" viewBox="0 0 906 977" version="1.1" xmlns="http://www.w3.org/2000/svg" xmlns:xlink="http://www.w3.org/1999/xlink">
    <!-- Generator: Sketch 60.1 (88133) - https://sketch.com -->
    <title>chia_circle</title>
    <desc>Created with Sketch.</desc>
    <defs>
        <linearGradient x1="50.0004433%" y1="1.42945118%" x2="50.0004433%" y2="99.9997163%" id="linearGradient-1">
            <stop stop-color="#28ACFF" offset="0%"></stop>
            <stop stop-color="#0A56B1" offset="100%"></stop>
        </linearGradient>
    </defs>
    <g id="页面-1" stroke="none" stroke-width="1" fill="none" fill-rule="evenodd">
        <g id="chia_circle" transform="translate(-46.000000, -10.000000)">
            <rect id="矩形" x="0" y="0" width="997" height="997"></rect>
            <path d="M283.810521,257.359794 C283.810521,257.359794 157.118545,414.067291 207.656297,618.328348 C271.825942,822.30212 443.206955,899.567201 577.107819,914.914379 C684.697008,926.572179 817.872448,897.934202 907.250521,821.258815 C877.765124,847.447291 732.07615,1054.52074 425.751482,964.448698 C425.751482,964.448698 173.667241,893.7761 133.315627,620.430081 C133.315627,620.430081 101.66908,434.419306 283.810521,257.359794 Z M388.830512,37.812044 C750.438402,-68.5143869 917.19485,162.116592 952,193.037746 C846.496402,102.5121 685.452656,62.564087 558.443307,76.3236224 C400.391928,94.4529441 201.928484,191.812997 126.182307,432.589743 C50.4361315,673.366489 214.139758,862.809586 214.139758,862.809586 C-0.87238153,653.815852 51.6602817,438.698373 51.6602817,438.698373 C99.3114577,116.029709 388.830512,37.812044 388.830512,37.812044 Z M463.866377,231.897093 C533.401126,231.897093 585.843109,251.553572 621.192334,290.836289 C648.682816,321.122386 662.435613,356.367966 662.435613,396.588147 L560.211525,396.588147 C557.899239,376.251251 552.005183,360.64703 542.544469,349.775486 C525.451705,329.892201 496.797526,319.958119 456.597041,319.958119 C432.567429,319.958119 412.467186,324.358145 396.296315,333.12796 C376.89127,344.226311 367.188746,360.1783 367.188746,380.968806 C367.188746,398.296748 373.309497,411.481709 385.550997,420.49345 C392.714542,425.815819 404.608444,430.548493 421.247818,434.706595 L546.005337,464.523961 C588.276297,474.926773 619.348552,488.444384 639.2221,505.09191 C666.017386,527.742222 679.422583,560.220773 679.422583,602.512443 C679.422583,654.057778 662.435613,694.036033 628.476782,722.477446 C590.58858,754.154618 540.458879,769.970523 478.087677,769.970523 C396.06962,769.970523 336.705897,749.406821 299.966282,708.249181 C273.85108,678.930784 260.793478,642.173169 260.793478,598.021695 L363.017567,598.021695 C363.017567,618.827321 369.138319,636.155264 381.379819,650.020641 C399.862975,670.357536 429.66574,680.533544 470.788114,680.533544 C501.51277,680.533544 525.42148,676.496406 542.514242,668.391888 C565.606852,657.535464 577.168269,639.738791 577.168269,615.001867 C577.168269,597.205194 568.735234,583.339815 551.869168,573.390613 C539.85436,566.223558 517.562738,558.8297 484.994302,551.209035 L429.544835,538.386962 C375.25907,526.139462 338.171854,513.196428 318.313421,499.557855 C284.581285,476.212007 267.715216,439.469509 267.715216,389.300127 C267.715216,350.00229 279.850926,316.616518 304.107233,289.097448 C337.597561,250.963878 390.855647,231.897093 463.866377,231.897093 Z M818.673434,246.11024 L818.673434,755.772498 L712.29328,755.772498 L712.29328,246.11024 L818.673434,246.11024 Z M506.273355,108.303202 L506.273355,187.594414 L492.021829,187.594414 L492.021829,121.820811 L482.017048,121.820811 L482.017048,108.303202 L506.273355,108.303202 Z M574.206127,108.303202 L574.206127,162.282917 L582.533371,162.282917 L582.533371,175.800526 L574.206127,175.800526 L574.206127,187.594414 L559.909264,187.594414 L559.909264,175.800526 L525.708625,175.800526 L525.708625,164.06712 L562.161095,108.303202 L574.206127,108.303202 Z M559.909264,132.405069 L540.942494,162.282917 L559.909264,162.282917 L559.909264,132.405069 Z" id="3" fill="url(#linearGradient-1)" fill-rule="nonzero"></path>
        </g>
    </g>
</svg>