<?xml version="1.0" encoding="UTF-8"?>
<svg width="47px" height="51px" viewBox="0 0 47 51" version="1.1" xmlns="http://www.w3.org/2000/svg" xmlns:xlink="http://www.w3.org/1999/xlink">
    <!-- Generator: Sketch 60.1 (88133) - https://sketch.com -->
    <title>chia_logo</title>
    <desc>Created with Sketch.</desc>
    <defs>
        <linearGradient x1="50.0004433%" y1="1.42945118%" x2="50.0004433%" y2="99.9997163%" id="linearGradient-1">
            <stop stop-color="#28ACFF" offset="0%"></stop>
            <stop stop-color="#0A56B1" offset="100%"></stop>
        </linearGradient>
    </defs>
    <g id="页面-1" stroke="none" stroke-width="1" fill="none" fill-rule="evenodd">
        <g id="chia_logo" transform="translate(-3.000000, 0.000000)">
            <rect id="矩形" x="0" y="0" width="52" height="52"></rect>
            <path d="M15.3367489,12.9123332 C15.3367489,12.9123332 8.76442784,21.0925607 11.3861435,31.7551134 C14.7150323,42.4026695 23.6056588,46.4359542 30.5519509,47.2370863 C36.1332885,47.8456306 43.0419482,46.3507106 47.678559,42.3482083 C46.1489634,43.7152629 38.5911469,54.5246241 22.7001321,49.8228082 C22.7001321,49.8228082 9.62291425,46.1336551 7.5296186,31.8648251 C7.5296186,31.8648251 5.88791033,22.1549484 15.3367489,12.9123332 Z M20.7848058,1.45180577 C39.543714,-4.09849921 48.1944348,7.94057953 50,9.55468277 C44.5268553,4.82918845 36.1724888,2.74387762 29.5837036,3.46213382 C21.3845702,4.40849555 11.0890052,9.49075008 7.15956781,22.0594441 C3.23013044,34.6281381 11.7224819,44.5171841 11.7224819,44.5171841 C0.568430539,33.6075829 3.29363492,22.3783183 3.29363492,22.3783183 C5.76560542,5.53481595 20.7848058,1.45180577 20.7848058,1.45180577 Z M24.6773948,11.5831645 C28.2846059,11.5831645 31.0051061,12.6092448 32.8388959,14.6598268 C34.2650026,16.2407796 34.9784479,18.0806205 34.9784479,20.1801387 L29.6754323,20.1801387 C29.5554793,19.1185402 29.249717,18.3039903 28.7589294,17.736489 C27.8722187,16.6985693 26.3857436,16.1800042 24.300288,16.1800042 C23.0537187,16.1800042 22.0109909,16.4096882 21.1721046,16.8674779 C20.1654411,17.4468187 19.6621093,18.2795223 19.6621093,19.3647995 C19.6621093,20.2693287 19.9796317,20.9575918 20.6146764,21.4280102 C20.9862952,21.7058411 21.6033078,21.9528896 22.4664983,22.1699451 L28.9384667,23.7264299 C31.1313311,24.2694631 32.7432472,24.9750907 33.7742149,25.8441018 C35.1642573,27.0264619 35.8596704,28.7218622 35.8596704,30.9295134 C35.8596704,33.6202116 34.9784479,35.707101 33.2167867,37.1917602 C31.251284,38.8453281 28.6507365,39.670928 25.4151444,39.670928 C21.1603445,39.670928 18.0807695,38.5974902 16.1748513,36.449036 C14.8200891,34.9185977 14.142708,32.9998277 14.142708,30.6950936 L19.4457237,30.6950936 C19.4457237,31.78116 19.7632461,32.6856893 20.3982908,33.4094705 C21.3571301,34.4710689 22.9031896,35.0022628 25.0364695,35.0022628 C26.6303534,35.0022628 27.8706507,34.7915217 28.7573613,34.3684609 C29.9553224,33.8017489 30.5550868,32.8727516 30.5550868,31.581469 C30.5550868,30.6524718 30.1176115,29.9286904 29.242661,29.409336 C28.6193763,29.0352113 27.4629677,28.6492474 25.7734351,28.251444 L22.8969175,27.5821239 C20.0807685,26.9427969 18.156818,26.2671626 17.1266344,25.5552207 C15.3767333,24.3365531 14.5017827,22.4185721 14.5017827,19.7996996 C14.5017827,17.7483283 15.1313394,16.0055706 16.3896688,14.5690582 C18.1270258,12.5784624 20.8898625,11.5831645 24.6773948,11.5831645 Z M43.0835005,12.3250995 L43.0835005,38.9297824 L37.5648832,38.9297824 L37.5648832,12.3250995 L43.0835005,12.3250995 Z M26.8773153,5.1314875 L26.8773153,9.27053748 L26.1379978,9.27053748 L26.1379978,5.837115 L25.6189859,5.837115 L25.6189859,5.1314875 L26.8773153,5.1314875 Z M30.4014216,5.1314875 L30.4014216,7.94926177 L30.8334089,7.94926177 L30.8334089,8.65488927 L30.4014216,8.65488927 L30.4014216,9.27053748 L29.6597521,9.27053748 L29.6597521,8.65488927 L27.8855468,8.65488927 L27.8855468,8.04239828 L29.7765689,5.1314875 L30.4014216,5.1314875 Z M29.6597521,6.38961976 L28.6758248,7.94926177 L29.6597521,7.94926177 L29.6597521,6.38961976 Z" id="3" fill="url(#linearGradient-1)" fill-rule="nonzero"></path>
        </g>
    </g>
</svg>